# AST/ASF file generated using VICON BodyLanguage
# -----------------------------------------------
:version 1.10
:name VICON
:units
  mass 1.0
  length 0.45
  angle deg
:documentation
   .ast/.asf automatically generated from VICON data using
   VICON BodyBuilder and BodyLanguage model FoxedUp or BRILLIANT.MOD
:root
   order TX TY TZ RX RY RZ
   axis XYZ
   position 0 0 0  
   orientation 0 0 0 
:bonedata
  begin
     id 1 
     name lhipjoint
     direction 0.700308 -0.549349 0.455834 
     length 2.59063 
     axis 0 0 0  XYZ
  end
  begin
     id 2 
     name lfemur
     direction 0.34202 -0.939693 0  
     length 6.31066  
     axis 0 0 20  XYZ
    dof rx ry rz
    limits (-160.0 20.0)
           (-70.0 70.0)
           (-60.0 70.0)
  end
  begin
     id 3 
     name ltibia
     direction 0.34202 -0.939693 0   
     length 7.36093   
     axis 0 0 20   XYZ
    dof rx
    limits (-10.0 170.0)
  end
  begin
     id 4 
     name lfoot
     direction 0.0905332 -0.248738 0.96433   
     length 2.0233   
     axis -90 7.62852e-016 20   XYZ
    dof rx rz
    limits (-45.0 90.0)
           (-70.0 20.0)
  end
  begin
     id 5 
     name ltoes
     direction 1.53573e-011 -4.21855e-011 1   
     length 1.01524   
     axis -90 7.62852e-016 20   XYZ
    dof rx
    limits (-90.0 20.0)
  end
  begin
     id 6 
     name rhipjoint
     direction -0.61416 -0.607328 0.503944   
     length 2.34332  
     axis 0 0 0  XYZ 
  end
  begin
     id 7 
     name rfemur
     direction -0.34202 -0.939693 0   
     length 6.58548   
     axis 0 0 -20   XYZ
    dof rx ry rz
    limits (-160.0 20.0)
           (-70.0 70.0)
           (-70.0 60.0)
  end
  begin
     id 8 
     name rtibia
     direction -0.34202 -0.939693 0   
     length 7.20707   
     axis 0 0 -20   XYZ
    dof rx
    limits (-10.0 170.0)
 end
 begin
     id 9 
     name rfoot
     direction -0.136772 -0.375778 0.916561   
     length 1.92184  
     axis -90 -7.62852e-016 -20   XYZ
    dof rx rz
    limits (-45.0 90.0)
           (-20.0 70.0)
  end
  begin
     id 10 
     name rtoes
     direction -1.53535e-011 -4.21828e-011 1   
     length 0.951089   
     axis -90 -7.62852e-016 -20   XYZ
    dof rx
    limits (-90.0 20.0)
  end
  begin
     id 11 
     name lowerback
     direction -0.0444974 0.988086 -0.147332   
     length 1.9609   
     axis 0 0 0   XYZ
    dof rx ry rz
    limits (-20.0 45.0)
           (-30.0 30.0)
           (-30.0 30.0)
  end
  begin
     id 12 
     name upperback
     direction 0.00613146 0.999513 0.0306081   
     length 1.94944   
     axis 0 0 0   XYZ
    dof rx ry rz
    limits (-20.0 45.0)
           (-30.0 30.0)
           (-30.0 30.0)
  end
  begin
     id 13 
     name thorax
     direction 0.0254621 0.994518 0.101418   
     length 2.0119   
     axis 0 0 0   XYZ
    dof rx ry rz
    limits (-20.0 45.0)
           (-30.0 30.0)
           (-30.0 30.0)
  end
  begin
     id 14 
     name lowerneck
     direction 0.0168698 0.977854 0.208608   
     length 1.6375   
     axis 0 0 0   XYZ
    dof rx ry rz
    limits (-20.0 45.0)
           (-30.0 30.0)
           (-30.0 30.0)
  end
  begin
     id 15 
     name upperneck
     direction -0.0283988 0.989338 -0.142843   
     length 1.6851   
     axis 0 0 0   XYZ
    dof rx ry rz
    limits (-20.0 45.0)
           (-30.0 30.0)
           (-30.0 30.0)
  end
  begin
     id 16
     name head
     direction -0.0129422 0.99741 -0.0707489  
     length 1.69029  
     axis 0 0 0   XYZ
    dof rx ry rz
    limits (-20.0 45.0)
           (-30.0 30.0)
           (-30.0 30.0)
  end
  begin
     id 17 
     name lclavicle
     direction 0.820295 0.564628 -0.0911715  
     length 3.16484  
     axis 0 0 0   XYZ
    dof ry rz
    limits (-20.0 10.0)
           (0.0 20.0)
  end
  begin
     id 18 
     name lhumerus
     direction 1 -4.48969e-011 1.00186e-027   
     length 5.17853   
     axis 180 -30 -90   XYZ
    dof rx ry rz
    limits (-60.0 90.0)
           (-90.0 90.0)
           (-90.0 90.0)
  end
  begin
     id 19
     name lradius
     direction 1 -4.48966e-011 -1.52922e-027   
     length 3.40399   
     axis 180 -30 -90   XYZ
    dof rx
    limits (-10.0 170.0)
  end
  begin
     id 20
     name lwrist
     direction 1 -4.48981e-011 -3.80893e-027   
     length 1.70199   
     axis 1.1049e-015 90 90   XYZ
    dof ry
    limits (-180.0 0.0)
 end
  begin
     id 21 
     name lhand
     direction 1 -4.48957e-011 -7.61786e-027   
     length 0.708964   
     axis 4.86085e-015 90 90   XYZ
    dof rx rz
    limits (-90.0 90.0)
           (-45.0 45.0)
  end
  begin
     id 22 
     name lfingers
     direction 1 -4.48929e-011 -1.52357e-026   
     length 0.571585   
     axis 9.7217e-015 90 90   XYZ
    dof rx
    limits (0.0 90.0)
  end
  begin
     id 23
     name lthumb
     direction 0.707107 -6.34905e-011 0.707107   
     length 0.820685   
     axis -90 45 2.85299e-015   XYZ
    dof rx rz
    limits (-45.0 45.0)
           (-45.0 45.0)
  end
  begin
     id 24 
     name rclavicle
     direction -0.858602 0.463947 -0.218075   
     length 3.35137  
     axis 0 0 0   XYZ 
    dof ry rz
    limits (-10.0 20.0)
           (-20.0 0.0)
  end
  begin
     id 25 
     name rhumerus
     direction -1 -4.48969e-011 -1.98511e-027  
     length 5.42351   
     axis 180 30 90   XYZ
    dof rx ry rz
    limits (-90.0 60.0)
           (-90.0 90.0)
           (-90.0 90.0)
  end
  begin
     id 26 
     name rradius
     direction -1 -4.48961e-011 -2.82624e-027   
     length 3.42066   
     axis 180 30 90   XYZ
    dof rx
    limits (-10.0 170.0)
  end
  begin
     id 27 
     name rwrist
     direction -1 -4.48966e-011 -3.80893e-027   
     length 1.71033   
     axis 1.1049e-015 -90 -90   XYZ
    dof ry
    limits (-180.0 0.0)
  end
  begin
     id 28
     name rhand
     direction -1 -4.48964e-011 -7.61786e-027   
     length 0.743608   
     axis 4.86085e-015 -90 -90   XYZ
    dof rx rz
    limits (-90.0 90.0)
           (-45.0 45.0)
  end
  begin
     id 29
     name rfingers
     direction -1 -4.48961e-011 -1.52357e-026   
     length 0.599516   
     axis 9.7217e-015 -90 -90   XYZ
    dof rx
    limits (0.0 90.0)
  end
  begin
     id 30
     name rthumb
     direction -0.707107 -6.34913e-011 0.707107   
     length 0.860789   
     axis -90 -45 -2.85299e-015   XYZ
    dof rx rz
    limits (-45.0 45.0)
           (-45.0 45.0)
  end
:hierarchy
  begin
    root lhipjoint rhipjoint lowerback
    lhipjoint lfemur
    lfemur ltibia
    ltibia lfoot
    lfoot ltoes
    rhipjoint rfemur
    rfemur rtibia
    rtibia rfoot
    rfoot rtoes
    lowerback upperback
    upperback thorax
    thorax lowerneck lclavicle rclavicle
    lowerneck upperneck
    upperneck head
    lclavicle lhumerus
    lhumerus lradius
    lradius lwrist
    lwrist lhand lthumb
    lhand lfingers
    rclavicle rhumerus
    rhumerus rradius
    rradius rwrist
    rwrist rhand rthumb
    rhand rfingers
  end

#!OML:ASF E:\mmandel\Project 1\Capture day 1\Session 2\Subject.ASF
:FULLY-SPECIFIED
:DEGREES
655
root 2.47826 5.67507 2.21183 64.7441 70.0427 -258.567
lowerback 38.2853 0.524498 -8.04373
upperback 13.7416 -0.382297 -2.87122
thorax -3.28565 0.57757 1.19895
lowerneck -8.24708 -2.07618 1.81577
upperneck 22.2168 -2.04797 -3.10062
head 8.16781 -0.934771 -1.50383
rclavicle -1.59028e-014 6.36111e-015
rhumerus -151.395 -15.3917 93.7164
rradius 10.0418
rwrist 130.917
rhand -24.6533 43.0368
rfingers 7.12502
rthumb 1.84642 13.0651
lclavicle -1.59028e-014 6.36111e-015
lhumerus -23.6617 -20.5304 73.8548
lradius 23.2956
lwrist 29.8791
lhand -14.699 -17.9362
lfingers 7.12502
lthumb 11.4551 11.7308
rfemur -97.0196 -28.8036 30.9382
rtibia 132.218
rfoot -15.9131 4.91675
rtoes 1.64679
lfemur -27.1844 67.8368 43.5154
ltibia 140.511
lfoot -14.4806 -54.6111
ltoes 14.7527
656
root 2.49716 5.72121 2.17244 63.7771 69.7789 -259.657
lowerback 38.6302 0.392194 -8.1487
upperback 13.5692 -0.6387 -2.52598
thorax -3.56359 0.430535 1.69912
lowerneck -7.79426 -1.81636 1.30428
upperneck 21.7506 -1.50168 -3.61407
head 7.94446 -0.766446 -1.52663
rclavicle -8.74653e-015 -6.67916e-014
rhumerus -151.65 -15.0012 95.3939
rradius 10.3512
rwrist 132.965
rhand -24.8966 43.1083
rfingers 7.12502
rthumb 1.6114 13.1346
lclavicle -8.74653e-015 -6.67916e-014
lhumerus -23.5595 -20.6392 73.6133
lradius 24.1099
lwrist 30.4727
lhand -14.5317 -18.2609
lfingers 7.12502
lthumb 11.6164 11.3971
rfemur -97.5118 -30.112 31.1407
rtibia 134.794
rfoot -15.8268 5.0244
rtoes -3.40383
lfemur -26.6721 67.4452 43.3565
ltibia 140.474
lfoot -13.8553 -54.477
ltoes 14.9879
657
root 2.51201 5.76892 2.13351 62.6219 69.5368 -260.796
lowerback 39.0824 0.250584 -7.47098
upperback 13.7726 -0.555036 -2.6626
thorax -3.51943 0.52289 1.17472
lowerneck -8.28006 -1.82408 1.90724
upperneck 21.4463 -1.55462 -4.06815
head 7.91793 -0.800037 -1.78613
rclavicle 4.49253e-014 4.13472e-014
rhumerus -152.589 -13.1405 96.7753
rradius 10.8908
rwrist 134.824
rhand -25.0888 43.1689
rfingers 7.12502
rthumb 1.42576 13.1939
lclavicle 4.49253e-014 4.13472e-014
lhumerus -22.4389 -22.9495 72.6507
lradius 25.1214
lwrist 31.8573
lhand -14.7353 -18.5271
lfingers 7.12502
lthumb 11.4201 11.1419
rfemur -97.6547 -31.6715 31.2319
rtibia 137.223
rfoot -15.7713 5.23807
rtoes -0.117755
lfemur -26.6862 66.8377 42.5362
ltibia 140.318
lfoot -12.6477 -54.1484
ltoes 15.1689
658
root 2.52182 5.81562 2.09711 61.8758 69.1837 -261.628
lowerback 39.397 0.0809283 -7.23106
upperback 13.9444 -0.656981 -2.65049
thorax -3.43221 0.494275 1.09761
lowerneck -8.453 -1.62754 2.16304
upperneck 20.8029 -1.25647 -4.64254
head 7.73799 -0.705095 -1.98595
rclavicle 3.97569e-015 5.08889e-014
rhumerus -153.581 -12.008 98.2391
rradius 11.3652
rwrist 136.531
rhand -25.3604 43.3869
rfingers 7.12502
rthumb 1.1635 13.4103
lclavicle 3.97569e-015 5.08889e-014
lhumerus -21.429 -24.497 71.7768
lradius 26.0376
lwrist 33.0425
lhand -15.2401 -18.4696
lfingers 7.12502
lthumb 10.9331 11.2258
rfemur -98.0619 -33.4673 31.2205
rtibia 139.618
rfoot -15.6665 5.40093
rtoes -0.517522
lfemur -27.3975 66.3032 40.8293
ltibia 140.116
lfoot -11.8949 -53.7051
ltoes 15.0474
659
root 2.53068 5.86732 2.06125 60.8985 68.9995 -262.92
lowerback 39.679 -0.0682116 -6.99703
upperback 13.8907 -0.778902 -2.44844
thorax -3.58202 0.434246 1.23113
lowerneck -8.51185 -1.42347 2.18602
upperneck 20.3114 -0.881185 -5.28625
head 7.59607 -0.58974 -2.16249
rclavicle 3.33958e-014 -2.8625e-014
rhumerus -153.576 -14.1804 97.9597
rradius 11.1522
rwrist 134.657
rhand -25.2314 42.997
rfingers 7.12502
rthumb 1.28811 13.0211
lclavicle 3.33958e-014 -2.8625e-014
lhumerus -20.8298 -25.533 71.0882
lradius 26.8908
lwrist 34.107
lhand -15.3641 -18.2074
lfingers 7.12502
lthumb 10.8136 11.4942
rfemur -98.3796 -35.1738 31.4244
rtibia 141.836
rfoot -15.6585 5.44142
rtoes -2.59748
lfemur -27.6696 66.0705 39.9531
ltibia 139.919
lfoot -11.088 -53.7282
ltoes 15.3187
